<!DOCTYPE svg PUBLIC "-//W3C//DTD SVG 1.1//EN" "http://www.w3.org/Graphics/SVG/1.1/DTD/svg11.dtd">
<!-- Uploaded to: SVG Repo, www.svgrepo.com, Transformed by: SVG Repo Mixer Tools -->
<svg height="800px" width="800px" version="1.1" id="Layer_1" xmlns="http://www.w3.org/2000/svg" xmlns:xlink="http://www.w3.org/1999/xlink" viewBox="0 0 512.096 512.096" xml:space="preserve" fill="#000000">
<g id="SVGRepo_bgCarrier" stroke-width="0"/>
<g id="SVGRepo_tracerCarrier" stroke-linecap="round" stroke-linejoin="round"/>
<g id="SVGRepo_iconCarrier"> <g transform="translate(-1)"> <path style="fill:#F4C44E;" d="M23.74,383.467c3.984,18.981,14.066,34.881,28.523,47.951h347.276 c5.921-8.639,9.384-18.711,9.384-30.701c0-6.051-0.633-12.009-1.843-17.827c-1.275-6.153-1.62-12.381-1.34-18.6l-61.151-61.142 c12.521,18.255,28.895,39.378,26.577,60.323c-2.672,24.111-27.183,42.496-60.425,7.978c-28.691-29.789-42.245-54.523-46.452-74.901 c-11.003-4.143-18.916-12.605-23.58-16.598c-42.189-36.166-80.97-42.245-112.724-31.967c-4.208-3.724-8.201-7.717-11.832-12.111 c-4.282-5.194-10.259-8.155-16.496-8.844c-44.591,7.596-26,43.874-26,43.874c2.392,2.904,4.636,5.911,6.796,8.983 C53.538,309.869,17.205,352.337,23.74,383.467"/> <g> <path style="fill:#E6E6E6;" d="M115.809,74.367c90.885-90.885,238.238-90.885,329.123,0s90.885,238.238,0,329.123L115.809,74.367z "/> <path style="fill:#E6E6E6;" d="M466.554,505.892H19.718L2.347,459.561C-2.763,445.942,7.3,431.42,21.84,431.42h442.591 c14.541,0,24.604,14.522,19.493,28.141L466.554,505.892z"/> </g> <path style="fill:#D2D5D7;" d="M12.638,177.544c2.746-3.37,6.265-5.381,9.989-6.209c2.327-0.521,4.189-2.067,5.148-4.245 c1.527-3.5,4.17-6.572,8.006-8.62c6.824-3.649,15.574-2.43,21.132,2.979c4.413,4.291,6.116,10.1,5.325,15.583 c-0.894,6.191,0.317,12.493,4.291,17.324l27.918,33.866c-16.189,4.077-22.37,12.474-24.045,20.797l-28.402-34.444 c-3.975-4.822-9.933-7.215-16.189-7.522c-5.53-0.261-10.91-3.044-14.28-8.201C7.285,192.373,7.75,183.558,12.638,177.544"/> <g> <path style="fill:#DC9628;" d="M99.659,227.027c6.228,0.698,12.214,3.649,16.496,8.844c16.877,20.471,40.569,33.718,66.541,39.154 c14.047,2.932,27.21,10.519,37.004,22.519c21.634,26.494,18.683,66.402-6.675,89.358c-27.732,25.097-70.461,21.737-93.985-6.796 c-8.778-10.65-13.601-23.254-14.643-36.035c-2.188-26.94-13.554-52.317-30.748-73.169 C73.649,270.901,55.068,234.624,99.659,227.027"/> <path style="fill:#DC9628;" d="M281.027,239.584c-23.068,23.71-34.546,65.136,29.715,131.873 c33.243,34.518,57.754,16.123,60.416-7.978c2.318-20.955-14.047-42.077-26.568-60.332L281.027,239.584z"/> </g> <g> <path style="fill:#AAA7A5;" d="M444.936,74.367c8.434,8.434,16.086,17.361,22.956,26.689c3.575-1.759,6.982-3.966,9.961-6.945 c14.541-14.541,14.541-38.111,0-52.662c-14.55-14.541-38.121-14.541-52.662,0c-2.979,2.979-5.185,6.386-6.945,9.961 C427.574,58.281,436.502,65.933,444.936,74.367"/> <path style="fill:#AAA7A5;" d="M418.604,110.002c-2.383,0-4.766-0.912-6.582-2.728c-9.896-9.896-20.797-18.637-32.405-25.963 c-4.347-2.746-5.641-8.499-2.895-12.847c2.737-4.347,8.509-5.632,12.837-2.895c12.772,8.071,24.762,17.669,35.626,28.542 c3.64,3.64,3.64,9.523,0,13.163C423.37,109.09,420.987,110.002,418.604,110.002"/> <path style="fill:#AAA7A5;" d="M175.063,90.256c-2.951,0-5.855-1.396-7.671-4.022c-2.923-4.226-1.862-10.026,2.365-12.94 c48.733-33.699,110.378-45.456,164.929-31.511c4.98,1.275,7.987,6.349,6.712,11.329c-1.285,4.98-6.349,7.978-11.329,6.703 c-49.385-12.66-105.36-1.89-149.718,28.784C178.731,89.716,176.888,90.256,175.063,90.256"/> </g> </g> </g>
</svg>